<mxfile host="app.diagrams.net" modified="2023-12-29T05:04:39.345Z" agent="Mozilla/5.0 (Windows NT 10.0; Win64; x64) AppleWebKit/537.36 (KHTML, like Gecko) Chrome/120.0.0.0 Safari/537.36" version="22.1.15" etag="H4fQPJ5L8Ngnb5JeNH-T" type="github">
  <diagram name="Page-1" id="A8tIL5qwvsV8ImmzWxlp">
    <mxGraphModel>
      <root>
        <mxCell id="0" />
        <mxCell id="1" parent="0" />
      </root>
    </mxGraphModel>
  </diagram>
</mxfile>
